<svg width="59" height="54" viewBox="0 0 59 54" fill="none" xmlns="http://www.w3.org/2000/svg">
<g clip-path="url(#clip0)">
<path d="M56.1101 23.711L29.8574 0.511797C29.0926 -0.170518 27.8728 -0.170518 27.108 0.511797L0.856172 23.71C0.469694 24.0514 0.251465 24.5219 0.251465 25.0135C0.251465 26.0141 1.13774 26.8252 2.23087 26.8252H5.71956V52.1884C5.71956 53.189 6.60571 54 7.69896 54H21.5548C22.648 54 23.5342 53.189 23.5342 52.1884V37.6951H33.4312V52.1884C33.4312 53.189 34.3173 54 35.4106 54H49.2664C50.3596 54 51.2458 53.189 51.2458 52.1884V26.8252H54.7345C55.2711 26.8252 55.7847 26.6258 56.1577 26.2726C56.9174 25.5532 56.8961 24.4063 56.1101 23.711ZM51.2458 25.0135C50.1525 25.0135 49.2664 25.8246 49.2664 26.8252V52.1884H35.4106V37.6951C35.4106 36.6945 34.5244 35.8835 33.4312 35.8835H23.5342C22.4409 35.8835 21.5548 36.6945 21.5548 37.6951V52.1884H7.69896V26.8252C7.69896 25.8246 6.81281 25.0135 5.71956 25.0135H2.23087L28.4827 1.81528L54.7444 25.0135H51.2458Z" fill="white"/>
</g>
<defs>
<clipPath id="clip0">
<rect width="59" height="54" fill="white"/>
</clipPath>
</defs>
</svg>
